<svg width="1080" height="72" viewBox="0 0 1080 72" fill="none" xmlns="http://www.w3.org/2000/svg">
<rect width="1080" height="72" fill="url(#paint0_linear_1772_347)"/>
<mask id="mask0_1772_347" style="mask-type:luminance" maskUnits="userSpaceOnUse" x="32" y="27" width="132" height="18">
<path d="M164 27.1111H32V44.8889H164V27.1111Z" fill="white"/>
</mask>
<g mask="url(#mask0_1772_347)">
<path d="M32 44.5319H66.8643V27.4954H32V44.5319ZM45.0547 33.5173L42.8002 36.3286V38.003C42.7882 38.225 42.8464 38.4452 42.9667 38.6329H40.1776C40.3056 38.4441 40.3669 38.2186 40.3519 37.9915V36.3286L38.1167 33.5403C37.9333 33.2737 37.6974 33.0464 37.4233 32.8721H40.2512C40.3461 33.1354 40.4764 33.3846 40.6386 33.6133L41.5838 35.0573H41.6148L42.5445 33.6402C42.7049 33.4118 42.8351 33.1641 42.9319 32.9028H45.7636C45.4831 33.0532 45.2427 33.2679 45.0625 33.5288M51.3691 36.6128H49.3392V38.003C49.3272 38.225 49.3855 38.4452 49.5058 38.6329H46.7205C46.849 38.4458 46.9104 38.2212 46.8948 37.9954V33.5327C46.9098 33.3057 46.8485 33.0801 46.7205 32.8913H51.3691C52.6862 32.8913 53.6198 33.5557 53.6198 34.7539C53.6198 35.9522 52.6513 36.6128 51.3691 36.6128ZM60.825 34.2354C60.6116 34.1242 60.3726 34.0698 60.1316 34.078H57.3463V35.4606H59.5776C59.8289 35.4626 60.0791 35.4302 60.3214 35.3646V36.7395C60.0723 36.6545 59.8101 36.6129 59.5466 36.6166H57.3463V38.0107C57.3326 38.2294 57.3882 38.4469 57.5051 38.6329H54.7238C54.8523 38.4486 54.9138 38.2265 54.898 38.003V33.525C54.9171 33.2934 54.854 33.0626 54.7199 32.8721H60.8134L60.825 34.2354Z" fill="white"/>
<path d="M50.1332 33.9626H49.3584V35.5603H50.1332C50.7026 35.5603 51.1635 35.3183 51.1635 34.7499C51.1635 34.1815 50.7103 33.9587 50.1448 33.9587" fill="white"/>
<path d="M72.5742 39.017V27.4954H74.6855V38.8134C74.6855 41.7207 76.3047 42.9573 79.0706 42.9573C81.7242 42.9573 83.3318 41.7207 83.3318 38.8134V27.4954H85.4431V39.017C85.4431 43.1417 82.6075 44.7778 79.0164 44.7778C75.3556 44.7778 72.5897 43.1339 72.5897 39.017" fill="white"/>
<path d="M90.0527 27.4954H92.2802L99.9271 39.3395C100.493 40.2228 101.147 41.5325 101.147 41.5325H101.194V27.4954H103.166V44.5319H101.008L93.3107 32.6647C92.7722 31.8314 92.0671 30.5409 92.0671 30.5409H92.0207V44.5319H90.0527V27.4954Z" fill="white"/>
<path d="M110.228 27.4915H108.117V44.5281H110.228V27.4915Z" fill="white"/>
<path d="M113.605 35.998C113.605 31.0054 116.561 27.1111 121.558 27.1111C125.479 27.1111 127.845 29.4154 128.291 32.5454H126.23C125.843 30.4216 124.165 28.9699 121.512 28.9699C117.828 28.9699 115.763 31.9962 115.763 35.998C115.763 40.1689 118.041 42.9801 121.535 42.9801C124.704 42.9801 126.203 40.791 126.416 38.287H128.504C128.444 40.0742 127.726 41.7777 126.486 43.0761C125.324 44.2283 123.6 44.8658 121.45 44.8658C116.689 44.8658 113.59 41.1713 113.59 35.998" fill="white"/>
<path d="M130.593 35.998C130.593 30.9938 133.548 27.1111 138.53 27.1111C142.45 27.1111 144.817 29.4154 145.262 32.5454H143.198C142.811 30.4216 141.133 28.9699 138.484 28.9699C134.799 28.9699 132.735 31.9962 132.735 35.998C132.751 40.1689 135.044 42.9801 138.53 42.9801C141.698 42.9801 143.179 40.791 143.411 38.287H145.503C145.443 40.0742 144.725 41.7777 143.485 43.0761C142.322 44.2283 140.598 44.8658 138.449 44.8658C133.688 44.8658 130.588 41.1713 130.588 35.998" fill="white"/>
<path d="M147.579 35.998C147.579 30.9017 150.724 27.1111 155.791 27.1111C160.858 27.1111 164 30.9017 164 35.998C164 41.0945 160.858 44.8889 155.791 44.8889C150.724 44.8889 147.579 41.0983 147.579 35.998ZM161.842 35.998C161.842 31.9962 159.731 28.9699 155.791 28.9699C151.852 28.9699 149.737 31.9962 149.737 35.998C149.737 39.9999 151.848 43.007 155.791 43.007C159.735 43.007 161.842 40.0037 161.842 35.998Z" fill="white"/>
</g>
<path d="M934.982 42L940.166 29.4H942.758L947.906 42H945.494L944.108 38.49H938.672L937.286 42H934.982ZM939.392 36.672H943.424L941.408 31.56L939.392 36.672ZM952.991 45.852C952.295 45.852 951.623 45.774 950.975 45.618C950.327 45.474 949.739 45.258 949.211 44.97L949.967 43.332C950.495 43.596 950.999 43.788 951.479 43.908C951.971 44.04 952.457 44.106 952.937 44.106C953.717 44.106 954.305 43.932 954.701 43.584C955.097 43.236 955.295 42.726 955.295 42.054V41.154C954.503 41.754 953.609 42.054 952.613 42.054C951.761 42.054 950.975 41.844 950.255 41.424C949.547 41.004 948.983 40.434 948.563 39.714C948.155 38.994 947.951 38.196 947.951 37.32C947.951 36.432 948.161 35.634 948.581 34.926C949.001 34.206 949.565 33.636 950.273 33.216C950.993 32.796 951.797 32.586 952.685 32.586C953.165 32.586 953.627 32.658 954.071 32.802C954.527 32.946 954.941 33.156 955.313 33.432V32.73H957.401V42.072C957.401 43.284 957.023 44.214 956.267 44.862C955.511 45.522 954.419 45.852 952.991 45.852ZM952.919 40.254C953.411 40.254 953.861 40.17 954.269 40.002C954.677 39.834 955.019 39.594 955.295 39.282V35.376C955.019 35.076 954.671 34.842 954.251 34.674C953.843 34.494 953.405 34.404 952.937 34.404C952.385 34.404 951.887 34.536 951.443 34.8C951.011 35.052 950.663 35.4 950.399 35.844C950.147 36.276 950.021 36.768 950.021 37.32C950.021 37.872 950.147 38.37 950.399 38.814C950.663 39.258 951.011 39.612 951.443 39.876C951.887 40.128 952.379 40.254 952.919 40.254ZM963.886 42.18C962.974 42.18 962.146 41.97 961.402 41.55C960.67 41.118 960.088 40.542 959.656 39.822C959.224 39.09 959.008 38.274 959.008 37.374C959.008 36.474 959.224 35.664 959.656 34.944C960.088 34.212 960.67 33.636 961.402 33.216C962.146 32.784 962.974 32.568 963.886 32.568C964.81 32.568 965.638 32.784 966.37 33.216C967.114 33.636 967.702 34.212 968.134 34.944C968.566 35.664 968.782 36.474 968.782 37.374C968.782 38.274 968.566 39.09 968.134 39.822C967.702 40.542 967.114 41.118 966.37 41.55C965.638 41.97 964.81 42.18 963.886 42.18ZM963.886 40.344C964.414 40.344 964.888 40.212 965.308 39.948C965.74 39.684 966.082 39.33 966.334 38.886C966.586 38.43 966.712 37.926 966.712 37.374C966.712 36.81 966.586 36.306 966.334 35.862C966.082 35.418 965.74 35.064 965.308 34.8C964.888 34.536 964.414 34.404 963.886 34.404C963.37 34.404 962.896 34.536 962.464 34.8C962.032 35.064 961.69 35.418 961.438 35.862C961.198 36.306 961.078 36.81 961.078 37.374C961.078 37.926 961.198 38.43 961.438 38.886C961.69 39.33 962.032 39.684 962.464 39.948C962.896 40.212 963.37 40.344 963.886 40.344ZM973.721 42.18C972.893 42.18 972.125 42.066 971.417 41.838C970.709 41.61 970.097 41.28 969.581 40.848L970.661 39.444C971.177 39.828 971.681 40.116 972.173 40.308C972.677 40.488 973.181 40.578 973.685 40.578C974.285 40.578 974.771 40.47 975.143 40.254C975.515 40.026 975.701 39.732 975.701 39.372C975.701 39.084 975.593 38.856 975.377 38.688C975.161 38.52 974.825 38.4 974.369 38.328L972.641 38.076C971.717 37.944 971.021 37.656 970.553 37.212C970.085 36.756 969.851 36.162 969.851 35.43C969.851 34.854 970.001 34.356 970.301 33.936C970.613 33.504 971.051 33.168 971.615 32.928C972.179 32.688 972.839 32.568 973.595 32.568C974.267 32.568 974.915 32.664 975.539 32.856C976.175 33.048 976.775 33.342 977.339 33.738L976.313 35.124C975.797 34.8 975.305 34.566 974.837 34.422C974.369 34.266 973.895 34.188 973.415 34.188C972.911 34.188 972.503 34.29 972.191 34.494C971.891 34.686 971.741 34.95 971.741 35.286C971.741 35.586 971.849 35.82 972.065 35.988C972.281 36.144 972.641 36.258 973.145 36.33L974.855 36.582C975.779 36.702 976.481 36.99 976.961 37.446C977.441 37.89 977.681 38.472 977.681 39.192C977.681 39.768 977.507 40.284 977.159 40.74C976.811 41.184 976.337 41.538 975.737 41.802C975.149 42.054 974.477 42.18 973.721 42.18ZM982.969 42.162C982.009 42.162 981.277 41.94 980.773 41.496C980.281 41.052 980.035 40.404 980.035 39.552V34.512H978.091V32.73H980.035V30.372L982.141 29.886V32.73H984.823V34.512H982.141V39.102C982.141 39.558 982.237 39.882 982.429 40.074C982.633 40.266 982.975 40.362 983.455 40.362C983.707 40.362 983.929 40.344 984.121 40.308C984.325 40.272 984.541 40.218 984.769 40.146V41.892C984.529 41.976 984.235 42.042 983.887 42.09C983.539 42.138 983.233 42.162 982.969 42.162ZM990.447 42.18C989.535 42.18 988.707 41.97 987.963 41.55C987.231 41.118 986.649 40.542 986.217 39.822C985.785 39.09 985.569 38.274 985.569 37.374C985.569 36.474 985.785 35.664 986.217 34.944C986.649 34.212 987.231 33.636 987.963 33.216C988.707 32.784 989.535 32.568 990.447 32.568C991.371 32.568 992.199 32.784 992.931 33.216C993.675 33.636 994.263 34.212 994.695 34.944C995.127 35.664 995.343 36.474 995.343 37.374C995.343 38.274 995.127 39.09 994.695 39.822C994.263 40.542 993.675 41.118 992.931 41.55C992.199 41.97 991.371 42.18 990.447 42.18ZM990.447 40.344C990.975 40.344 991.449 40.212 991.869 39.948C992.301 39.684 992.643 39.33 992.895 38.886C993.147 38.43 993.273 37.926 993.273 37.374C993.273 36.81 993.147 36.306 992.895 35.862C992.643 35.418 992.301 35.064 991.869 34.8C991.449 34.536 990.975 34.404 990.447 34.404C989.931 34.404 989.457 34.536 989.025 34.8C988.593 35.064 988.251 35.418 987.999 35.862C987.759 36.306 987.639 36.81 987.639 37.374C987.639 37.926 987.759 38.43 987.999 38.886C988.251 39.33 988.593 39.684 989.025 39.948C989.457 40.212 989.931 40.344 990.447 40.344ZM995.827 44.646L996.997 40.2H999.211L997.411 44.646H995.827ZM1004.85 42V40.542L1010.03 35.142C1010.33 34.83 1010.56 34.548 1010.73 34.296C1010.9 34.032 1011.02 33.78 1011.09 33.54C1011.18 33.3 1011.22 33.048 1011.22 32.784C1011.22 32.268 1011 31.836 1010.57 31.488C1010.15 31.14 1009.62 30.966 1008.97 30.966C1008.39 30.966 1007.85 31.086 1007.35 31.326C1006.84 31.554 1006.29 31.95 1005.69 32.514L1004.56 31.128C1005.24 30.48 1005.96 30 1006.7 29.688C1007.44 29.364 1008.21 29.202 1009 29.202C1009.83 29.202 1010.56 29.352 1011.18 29.652C1011.82 29.94 1012.31 30.342 1012.66 30.858C1013.02 31.374 1013.2 31.974 1013.2 32.658C1013.2 33.066 1013.14 33.45 1013.02 33.81C1012.91 34.17 1012.72 34.542 1012.46 34.926C1012.21 35.298 1011.86 35.718 1011.42 36.186L1007.44 40.29L1013.41 40.272V42H1004.85ZM1020.63 42.198C1019.55 42.198 1018.6 41.928 1017.78 41.388C1016.98 40.836 1016.35 40.074 1015.89 39.102C1015.44 38.118 1015.21 36.984 1015.21 35.7C1015.21 34.416 1015.44 33.288 1015.89 32.316C1016.35 31.332 1016.98 30.57 1017.78 30.03C1018.6 29.478 1019.55 29.202 1020.63 29.202C1021.69 29.202 1022.64 29.478 1023.45 30.03C1024.27 30.57 1024.9 31.332 1025.36 32.316C1025.82 33.288 1026.04 34.416 1026.04 35.7C1026.04 36.984 1025.82 38.118 1025.36 39.102C1024.9 40.074 1024.27 40.836 1023.45 41.388C1022.64 41.928 1021.69 42.198 1020.63 42.198ZM1020.63 40.362C1021.31 40.362 1021.9 40.176 1022.39 39.804C1022.89 39.42 1023.28 38.88 1023.56 38.184C1023.84 37.476 1023.97 36.648 1023.97 35.7C1023.97 34.74 1023.84 33.912 1023.56 33.216C1023.28 32.52 1022.89 31.986 1022.39 31.614C1021.9 31.23 1021.31 31.038 1020.63 31.038C1019.94 31.038 1019.35 31.23 1018.84 31.614C1018.34 31.986 1017.95 32.52 1017.67 33.216C1017.41 33.912 1017.28 34.74 1017.28 35.7C1017.28 36.648 1017.41 37.476 1017.67 38.184C1017.95 38.88 1018.34 39.42 1018.84 39.804C1019.35 40.176 1019.94 40.362 1020.63 40.362ZM1027.43 42V40.542L1032.62 35.142C1032.92 34.83 1033.15 34.548 1033.32 34.296C1033.49 34.032 1033.61 33.78 1033.68 33.54C1033.76 33.3 1033.81 33.048 1033.81 32.784C1033.81 32.268 1033.59 31.836 1033.16 31.488C1032.74 31.14 1032.2 30.966 1031.56 30.966C1030.98 30.966 1030.44 31.086 1029.94 31.326C1029.43 31.554 1028.88 31.95 1028.28 32.514L1027.15 31.128C1027.83 30.48 1028.54 30 1029.29 29.688C1030.03 29.364 1030.8 29.202 1031.59 29.202C1032.42 29.202 1033.15 29.352 1033.77 29.652C1034.41 29.94 1034.9 30.342 1035.25 30.858C1035.61 31.374 1035.79 31.974 1035.79 32.658C1035.79 33.066 1035.73 33.45 1035.61 33.81C1035.5 34.17 1035.31 34.542 1035.05 34.926C1034.8 35.298 1034.45 35.718 1034 36.186L1030.03 40.29L1036 40.272V42H1027.43ZM1042.93 42.18C1041.89 42.18 1040.98 41.922 1040.19 41.406C1039.41 40.89 1038.8 40.17 1038.35 39.246C1037.91 38.322 1037.69 37.248 1037.69 36.024C1037.69 34.656 1037.93 33.462 1038.43 32.442C1038.92 31.422 1039.6 30.63 1040.48 30.066C1041.37 29.49 1042.4 29.202 1043.57 29.202C1044.19 29.202 1044.8 29.298 1045.41 29.49C1046.02 29.682 1046.54 29.952 1046.96 30.3L1045.84 31.794C1045.48 31.53 1045.1 31.338 1044.71 31.218C1044.31 31.086 1043.88 31.02 1043.41 31.02C1042.63 31.02 1041.97 31.218 1041.41 31.614C1040.87 31.998 1040.45 32.562 1040.15 33.306C1039.87 34.05 1039.72 34.95 1039.7 36.006C1040.14 35.418 1040.65 34.962 1041.25 34.638C1041.86 34.314 1042.5 34.152 1043.16 34.152C1043.99 34.152 1044.72 34.32 1045.36 34.656C1045.99 34.98 1046.49 35.436 1046.85 36.024C1047.21 36.6 1047.39 37.266 1047.39 38.022C1047.39 38.814 1047.19 39.528 1046.8 40.164C1046.41 40.788 1045.88 41.28 1045.21 41.64C1044.54 42 1043.78 42.18 1042.93 42.18ZM1042.84 35.754C1042.25 35.754 1041.69 35.886 1041.16 36.15C1040.65 36.414 1040.19 36.774 1039.79 37.23C1039.9 37.878 1040.09 38.442 1040.37 38.922C1040.66 39.402 1041.01 39.78 1041.43 40.056C1041.85 40.32 1042.33 40.452 1042.85 40.452C1043.33 40.452 1043.77 40.35 1044.15 40.146C1044.53 39.93 1044.83 39.642 1045.05 39.282C1045.28 38.922 1045.39 38.514 1045.39 38.058C1045.39 37.614 1045.28 37.218 1045.07 36.87C1044.85 36.522 1044.55 36.252 1044.17 36.06C1043.8 35.856 1043.35 35.754 1042.84 35.754Z" fill="white"/>
<g clip-path="url(#clip0_1772_347)">
<g style="mix-blend-mode:screen" opacity="0.3">
<path d="M1182.58 -698.215L1182.96 -697.561V-697.561L1182.58 -698.215ZM1217.86 -1001.97L1217.39 -1001.84L1217.39 -1001.84L1217.86 -1001.97ZM1004.19 -1134.04L1004.57 -1133.39L1004.57 -1133.39L1004.19 -1134.04ZM968.908 -830.287L969.38 -830.414L969.38 -830.414L968.908 -830.287ZM933.725 -526.553L934.105 -525.899L934.106 -525.899L933.725 -526.553ZM933.503 -526.414L933.123 -527.068L933.503 -526.414ZM898.22 -222.66L898.692 -222.788L898.692 -222.788L898.22 -222.66ZM1147.18 -394.342L1146.7 -394.215L1146.7 -394.215L1147.18 -394.342ZM1147.14 -394.418L1146.6 -394.756L1146.57 -394.536L1146.67 -394.291L1147.14 -394.418ZM1147.15 -394.433L1147.69 -394.095L1147.72 -394.308L1147.62 -394.547L1147.15 -394.433ZM1146.9 -394.982L1146.43 -394.855L1147.38 -395.093L1146.9 -394.982ZM1146.81 -395.217L1147.28 -395.342C1098.56 -515.166 1114.55 -650.393 1182.96 -697.561L1182.58 -698.215L1182.2 -698.869C1113.42 -651.444 1097.35 -515.57 1146.34 -395.093L1146.81 -395.217ZM1182.58 -698.215L1182.96 -697.561C1251.9 -745.093 1267.73 -881.421 1218.33 -1002.1L1217.86 -1001.97L1217.39 -1001.84C1266.52 -881.821 1250.76 -746.143 1182.2 -698.869L1182.58 -698.215ZM1217.86 -1001.97L1218.33 -1002.1C1193.63 -1062.46 1157.25 -1107.53 1118.41 -1131.54C1079.56 -1155.55 1038.29 -1158.48 1003.81 -1134.69L1004.19 -1134.04L1004.57 -1133.39C1038.84 -1157.02 1079.78 -1154.08 1118.26 -1130.29C1156.75 -1106.51 1192.84 -1061.83 1217.39 -1001.84L1217.86 -1001.97ZM1004.19 -1134.04L1003.81 -1134.69C934.874 -1087.16 919.039 -950.835 968.437 -830.16L968.908 -830.287L969.38 -830.414C920.25 -950.435 936.009 -1086.11 1004.57 -1133.39L1004.19 -1134.04ZM968.908 -830.287L968.437 -830.16C1017.54 -710.186 1001.84 -574.531 933.344 -527.207L933.725 -526.553L934.106 -525.899C1002.97 -573.482 1018.75 -709.786 969.38 -830.414L968.908 -830.287ZM933.725 -526.553L933.344 -527.207C933.317 -527.188 933.289 -527.171 933.251 -527.149C933.215 -527.127 933.17 -527.1 933.123 -527.068L933.503 -526.414L933.884 -525.76C933.911 -525.779 933.939 -525.796 933.977 -525.819C934.013 -525.84 934.058 -525.867 934.105 -525.899L933.725 -526.553ZM933.503 -526.414L933.123 -527.068C864.186 -479.528 848.351 -343.208 897.749 -222.533L898.22 -222.66L898.692 -222.788C849.562 -342.808 865.32 -478.479 933.884 -525.76L933.503 -526.414ZM898.22 -222.66L897.749 -222.533C922.456 -162.171 958.828 -117.107 997.677 -93.094C1036.53 -69.0809 1077.79 -66.1564 1112.27 -89.9345L1111.89 -90.5882L1111.51 -91.242C1077.25 -67.6136 1036.31 -70.5529 997.822 -94.3413C959.336 -118.13 923.243 -162.805 898.692 -222.788L898.22 -222.66ZM1111.89 -90.5882L1112.27 -89.9345C1181.21 -137.474 1197.04 -273.794 1147.65 -394.469L1147.18 -394.342L1146.7 -394.215C1195.83 -274.194 1180.08 -138.524 1111.51 -91.242L1111.89 -90.5882ZM1147.18 -394.342L1147.65 -394.469C1147.63 -394.517 1147.66 -394.429 1147.64 -394.478C1147.64 -394.49 1147.64 -394.475 1147.64 -394.487C1147.64 -394.489 1147.64 -394.495 1147.64 -394.497C1147.63 -394.498 1147.63 -394.499 1147.63 -394.5C1147.63 -394.518 1147.64 -394.484 1147.63 -394.502C1147.63 -394.503 1147.63 -394.504 1147.63 -394.505C1147.63 -394.505 1147.63 -394.505 1147.63 -394.505C1147.63 -394.505 1147.63 -394.506 1147.63 -394.506C1147.63 -394.506 1147.63 -394.506 1147.63 -394.506C1147.63 -394.506 1147.63 -394.506 1147.63 -394.506C1147.63 -394.507 1147.63 -394.507 1147.63 -394.507C1147.63 -394.507 1147.63 -394.507 1147.63 -394.507C1147.63 -394.507 1147.63 -394.507 1147.63 -394.507C1147.63 -394.507 1147.63 -394.507 1147.63 -394.507C1147.61 -394.551 1147.63 -394.504 1147.62 -394.545L1147.14 -394.418L1146.67 -394.291C1146.69 -394.242 1146.66 -394.331 1146.68 -394.282C1146.68 -394.27 1146.68 -394.285 1146.68 -394.273C1146.68 -394.271 1146.68 -394.265 1146.68 -394.263C1146.68 -394.262 1146.69 -394.261 1146.69 -394.26C1146.69 -394.242 1146.68 -394.276 1146.69 -394.258C1146.69 -394.257 1146.69 -394.256 1146.69 -394.255C1146.69 -394.255 1146.69 -394.255 1146.69 -394.255C1146.69 -394.255 1146.69 -394.254 1146.69 -394.254C1146.69 -394.254 1146.69 -394.254 1146.69 -394.254C1146.69 -394.254 1146.69 -394.254 1146.69 -394.253C1146.69 -394.253 1146.69 -394.253 1146.69 -394.253C1146.69 -394.253 1146.69 -394.253 1146.69 -394.253C1146.69 -394.253 1146.69 -394.253 1146.69 -394.253C1146.69 -394.253 1146.69 -394.253 1146.69 -394.253C1146.71 -394.209 1146.69 -394.256 1146.7 -394.215L1147.18 -394.342ZM1147.14 -394.418L1147.69 -394.08L1147.69 -394.095L1147.15 -394.433L1146.6 -394.771L1146.6 -394.756L1147.14 -394.418ZM1147.15 -394.433L1147.62 -394.547C1147.51 -394.823 1147.36 -395.161 1147.27 -395.359L1146.81 -395.217L1146.34 -395.076C1146.48 -394.746 1146.57 -394.579 1146.67 -394.32L1147.15 -394.433ZM1146.81 -395.217L1146.34 -395.09C1146.35 -395.066 1146.36 -395.038 1146.37 -394.996C1146.39 -394.958 1146.41 -394.906 1146.43 -394.855L1146.9 -394.982L1147.37 -395.109C1147.36 -395.133 1147.35 -395.161 1147.34 -395.204C1147.32 -395.241 1147.3 -395.293 1147.28 -395.345L1146.81 -395.217ZM1146.9 -394.982L1147.38 -395.093L1147.29 -395.329L1146.81 -395.217L1146.33 -395.106L1146.42 -394.87L1146.9 -394.982Z" fill="#1F66D8"/>
<path d="M1146.99 -369.997L1146.51 -369.872L1147.33 -367.877L1147.53 -369.66L1146.99 -369.997ZM1183.93 -682.924L1183.55 -683.578L1183.55 -683.578L1183.93 -682.924ZM999.693 -1133.03L1000.07 -1132.38L1000.07 -1132.38L999.693 -1133.03ZM926.921 -505.64L927.301 -504.987L927.302 -504.987L926.921 -505.64ZM926.693 -505.497L926.312 -506.151L926.693 -505.497ZM1110.93 -55.3882L1111.31 -54.7344L1111.31 -54.7344L1110.93 -55.3882ZM1147.37 -369.097L1147.84 -369.224L1147.37 -369.097ZM1147.33 -369.176L1146.79 -369.514L1146.75 -369.221L1146.93 -368.912L1147.33 -369.176ZM1147.33 -369.191L1147.88 -368.853L1147.9 -369.073L1147.8 -369.318L1147.33 -369.191ZM1146.99 -370.005L1147.44 -370.178L1146.63 -371.944L1146.44 -370.342L1146.99 -370.005ZM1147.09 -369.758L1146.61 -369.631L1147.56 -369.87L1147.09 -369.758ZM1146.99 -369.997L1147.46 -370.122C1097.14 -493.879 1113.65 -633.546 1184.31 -682.27L1183.93 -682.924L1183.55 -683.578C1112.52 -634.597 1095.93 -494.283 1146.51 -369.872L1146.99 -369.997ZM1183.93 -682.924L1184.31 -682.27C1255.5 -731.356 1271.85 -872.134 1220.84 -996.76L1220.37 -996.633L1219.9 -996.505C1270.64 -872.534 1254.36 -732.405 1183.55 -683.578L1183.93 -682.924ZM1220.37 -996.633L1220.84 -996.76C1195.32 -1059.1 1157.77 -1105.63 1117.65 -1130.43C1077.53 -1155.23 1034.92 -1158.24 999.313 -1133.69L999.693 -1133.03L1000.07 -1132.38C1035.47 -1156.79 1077.75 -1153.75 1117.51 -1129.18C1157.26 -1104.61 1194.54 -1058.46 1219.9 -996.505L1220.37 -996.633ZM999.693 -1133.03L999.313 -1133.69C928.124 -1084.6 911.772 -943.823 962.783 -819.197L963.254 -819.325L963.726 -819.452C912.983 -943.423 929.259 -1083.55 1000.07 -1132.38L999.693 -1133.03ZM963.254 -819.325L962.783 -819.197C1013.5 -695.281 997.286 -555.172 926.54 -506.294L926.921 -505.64L927.302 -504.987C998.422 -554.122 1014.71 -694.881 963.726 -819.452L963.254 -819.325ZM926.921 -505.64L926.54 -506.294C926.513 -506.275 926.483 -506.257 926.443 -506.233C926.406 -506.211 926.359 -506.183 926.312 -506.151L926.693 -505.497L927.073 -504.843C927.101 -504.862 927.131 -504.881 927.171 -504.904C927.208 -504.926 927.255 -504.954 927.301 -504.987L926.921 -505.64ZM926.693 -505.497L926.312 -506.151C855.123 -457.058 838.772 -316.287 889.783 -191.661L890.254 -191.789L890.725 -191.916C839.982 -315.887 856.258 -456.008 927.073 -504.843L926.693 -505.497ZM890.254 -191.789L889.783 -191.661C915.297 -129.328 952.854 -82.7944 992.97 -57.9983C1033.09 -33.2023 1075.7 -30.1814 1111.31 -54.7344L1110.93 -55.3882L1110.55 -56.042C1075.16 -31.6386 1032.87 -34.6744 993.115 -59.2457C953.363 -83.8171 916.084 -129.962 890.725 -191.916L890.254 -191.789ZM1110.93 -55.3882L1111.31 -54.7344C1182.5 -103.827 1198.85 -244.598 1147.84 -369.224L1147.37 -369.097L1146.9 -368.969C1197.64 -244.998 1181.36 -104.877 1110.55 -56.042L1110.93 -55.3882ZM1147.37 -369.097L1147.84 -369.224C1147.83 -369.247 1147.79 -369.338 1147.74 -369.44L1147.33 -369.176L1146.93 -368.912C1146.92 -368.924 1146.91 -368.936 1146.91 -368.948C1146.9 -368.96 1146.9 -368.969 1146.89 -368.976C1146.89 -368.982 1146.89 -368.985 1146.89 -368.984C1146.89 -368.982 1146.89 -368.978 1146.9 -368.969L1147.37 -369.097ZM1147.33 -369.176L1147.88 -368.838L1147.88 -368.853L1147.33 -369.191L1146.79 -369.529L1146.79 -369.514L1147.33 -369.176ZM1147.33 -369.191L1147.8 -369.318C1147.74 -369.469 1147.68 -369.617 1147.62 -369.746C1147.56 -369.88 1147.51 -370 1147.46 -370.119L1146.99 -370.005L1146.51 -369.891C1146.57 -369.731 1146.64 -369.579 1146.7 -369.444C1146.76 -369.304 1146.81 -369.185 1146.86 -369.064L1147.33 -369.191ZM1146.99 -370.005L1146.54 -369.832C1146.54 -369.834 1146.54 -369.828 1146.55 -369.791C1146.56 -369.764 1146.59 -369.697 1146.61 -369.631L1147.09 -369.758L1147.56 -369.886C1147.55 -369.907 1147.54 -369.923 1147.52 -369.977C1147.5 -370.022 1147.48 -370.096 1147.44 -370.178L1146.99 -370.005ZM1147.09 -369.758L1147.56 -369.87L1147.47 -370.117L1146.99 -370.005L1146.51 -369.893L1146.61 -369.646L1147.09 -369.758ZM1146.99 -370.005L1146.44 -370.342L1146.44 -370.335L1146.99 -369.997L1147.53 -369.66L1147.53 -369.667L1146.99 -370.005Z" fill="#1F66D8"/>
<path d="M1147.2 -343.143L1147.58 -342.489L1147.9 -342.709L1147.67 -343.268L1147.2 -343.143ZM957.229 -807.717L957.7 -807.844L957.7 -807.844L957.229 -807.717ZM919.658 -483.381L920.039 -482.728L920.039 -482.728L919.658 -483.381ZM919.424 -483.234L919.805 -482.58L919.424 -483.234ZM1147.59 -342.205L1147.12 -342.078L1147.59 -342.205ZM1147.55 -342.285L1147 -342.622L1146.97 -342.33L1147.15 -342.021L1147.55 -342.285ZM1147.55 -342.3L1148.1 -341.962L1148.12 -342.182L1148.02 -342.427L1147.55 -342.3ZM1147.19 -343.139L1146.81 -343.792L1146.5 -343.576L1146.72 -343.026L1147.19 -343.139ZM1147.29 -342.892L1146.82 -342.765L1147.77 -343.004L1147.29 -342.892ZM1147.2 -343.143L1147.67 -343.268C1095.64 -471.232 1112.72 -615.655 1185.77 -666.035L1185.39 -666.688L1185.01 -667.342C1111.58 -616.705 1094.43 -471.636 1146.73 -343.018L1147.2 -343.143ZM1185.39 -666.688L1185.77 -666.035C1259.37 -716.788 1276.27 -862.328 1223.54 -991.168L1223.07 -991.041L1222.6 -990.913C1275.06 -862.728 1258.23 -717.837 1185.01 -667.342L1185.39 -666.688ZM1223.07 -991.041L1223.54 -991.168C1197.16 -1055.61 1158.33 -1103.72 1116.86 -1129.35C1075.39 -1154.99 1031.34 -1158.11 994.524 -1132.72L994.905 -1132.07L995.285 -1131.42C1031.88 -1156.65 1075.61 -1153.52 1116.72 -1128.11C1157.82 -1102.7 1196.37 -1054.98 1222.6 -990.913L1223.07 -991.041ZM994.905 -1132.07L994.524 -1132.72C920.927 -1081.97 904.022 -936.429 956.758 -807.59L957.229 -807.717L957.7 -807.844C905.232 -936.029 922.062 -1080.92 995.285 -1131.42L994.905 -1132.07ZM957.229 -807.717L956.758 -807.59C1009.2 -679.451 992.432 -534.58 919.278 -484.035L919.658 -483.381L920.039 -482.728C993.567 -533.531 1010.41 -679.051 957.7 -807.844L957.229 -807.717ZM919.658 -483.381L919.278 -484.035C919.25 -484.016 919.218 -483.997 919.177 -483.972C919.139 -483.949 919.09 -483.92 919.044 -483.888L919.424 -483.234L919.805 -482.58C919.833 -482.599 919.864 -482.619 919.906 -482.643C919.944 -482.667 919.992 -482.695 920.039 -482.728L919.658 -483.381ZM919.424 -483.234L919.044 -483.888C845.447 -433.135 828.542 -287.594 881.278 -158.754L881.749 -158.882L882.22 -159.009C829.752 -287.194 846.582 -432.085 919.805 -482.58L919.424 -483.234ZM881.749 -158.882L881.278 -158.754C907.656 -94.3084 946.484 -46.2011 987.955 -20.5677C1029.43 5.06567 1073.48 8.18705 1110.29 -17.1996L1109.91 -17.8534L1109.53 -18.5072C1072.93 6.72999 1029.21 3.59354 988.1 -21.8151C946.992 -47.2238 908.443 -94.9426 882.22 -159.009L881.749 -158.882ZM1109.91 -17.8534L1110.29 -17.1996C1183.89 -67.9526 1200.79 -213.493 1148.06 -342.333L1147.59 -342.205L1147.12 -342.078C1199.58 -213.893 1182.75 -69.0023 1109.53 -18.5072L1109.91 -17.8534ZM1147.59 -342.205L1148.06 -342.333C1148.05 -342.356 1148.01 -342.447 1147.95 -342.549L1147.55 -342.285L1147.15 -342.021C1147.14 -342.033 1147.13 -342.045 1147.13 -342.057C1147.12 -342.068 1147.12 -342.078 1147.11 -342.085C1147.11 -342.091 1147.11 -342.094 1147.11 -342.093C1147.11 -342.09 1147.11 -342.087 1147.12 -342.078L1147.59 -342.205ZM1147.55 -342.285L1148.1 -341.947L1148.1 -341.962L1147.55 -342.3L1147.01 -342.638L1147 -342.622L1147.55 -342.285ZM1147.55 -342.3L1148.02 -342.427C1147.91 -342.707 1147.76 -343.04 1147.66 -343.279L1147.19 -343.139L1146.73 -342.998C1146.87 -342.666 1146.96 -342.458 1147.08 -342.173L1147.55 -342.3ZM1147.19 -343.139L1146.72 -343.011C1146.73 -342.981 1146.75 -342.949 1146.76 -342.907C1146.78 -342.868 1146.8 -342.816 1146.82 -342.765L1147.29 -342.892L1147.76 -343.019C1147.75 -343.044 1147.74 -343.071 1147.72 -343.116C1147.71 -343.156 1147.69 -343.21 1147.66 -343.266L1147.19 -343.139ZM1147.29 -342.892L1147.77 -343.004L1147.67 -343.251L1147.19 -343.139L1146.72 -343.026L1146.81 -342.78L1147.29 -342.892ZM1147.19 -343.139L1147.57 -342.485L1147.58 -342.489L1147.2 -343.143L1146.82 -343.797L1146.81 -343.792L1147.19 -343.139Z" fill="#1F66D8"/>
<path d="M1147.4 -314.322L1146.93 -314.197L1147.29 -313.324L1147.78 -313.668L1147.4 -314.322ZM1186.94 -649.209L1186.56 -649.863L1186.94 -649.209ZM1225.93 -984.932L1225.46 -984.804L1225.46 -984.804L1225.93 -984.932ZM989.772 -1130.9L990.152 -1130.25L990.152 -1130.25L989.772 -1130.9ZM950.776 -795.181L951.247 -795.309L951.247 -795.309L950.776 -795.181ZM911.89 -459.48L912.271 -458.826L912.271 -458.826L911.89 -459.48ZM911.65 -459.328L911.27 -459.982L911.65 -459.328ZM1108.81 22.374L1108.43 21.7202L1108.43 21.7203L1108.81 22.374ZM1147.81 -313.356L1148.28 -313.483L1147.81 -313.356ZM1147.78 -313.443L1147.23 -313.78L1147.21 -313.624L1147.26 -313.446L1147.78 -313.443ZM1147.78 -313.458L1148.32 -313.12L1148.35 -313.34L1148.25 -313.585L1147.78 -313.458ZM1147.41 -314.326L1147.88 -314.453L1147.53 -315.322L1147.03 -314.98L1147.41 -314.326ZM1147.51 -314.069L1147.04 -313.941L1147.99 -314.181L1147.51 -314.069ZM1147.4 -314.322L1147.88 -314.446C1094.01 -446.909 1111.69 -596.404 1187.32 -648.555L1186.94 -649.209L1186.56 -649.863C1110.56 -597.455 1092.8 -447.313 1146.93 -314.197L1147.4 -314.322ZM1186.94 -649.209L1187.32 -648.555C1263.49 -701.084 1280.99 -851.719 1226.4 -985.059L1225.93 -984.932L1225.46 -984.804C1279.78 -852.119 1262.35 -702.134 1186.56 -649.863L1186.94 -649.209ZM1225.93 -984.932L1226.4 -985.059C1199.1 -1051.76 1158.92 -1101.55 1116 -1128.08C1073.08 -1154.6 1027.49 -1157.83 989.391 -1131.56L989.772 -1130.9L990.152 -1130.25C1028.03 -1156.38 1073.3 -1153.13 1115.85 -1126.83C1158.41 -1100.52 1198.32 -1051.12 1225.46 -984.804L1225.93 -984.932ZM989.772 -1130.9L989.391 -1131.56C913.22 -1079.03 895.722 -928.394 950.304 -795.054L950.776 -795.181L951.247 -795.309C896.933 -927.994 914.355 -1077.98 990.152 -1130.25L989.772 -1130.9ZM950.776 -795.181L950.304 -795.054C1004.6 -662.415 987.233 -512.45 911.51 -460.133L911.89 -459.48L912.271 -458.826C988.368 -511.401 1005.81 -662.016 951.247 -795.309L950.776 -795.181ZM911.89 -459.48L911.51 -460.134C911.478 -460.112 911.447 -460.093 911.406 -460.068C911.367 -460.045 911.319 -460.016 911.27 -459.982L911.65 -459.328L912.031 -458.674C912.062 -458.696 912.094 -458.715 912.135 -458.74C912.174 -458.763 912.221 -458.792 912.271 -458.826L911.89 -459.48ZM911.65 -459.328L911.27 -459.982C835.098 -407.453 817.601 -256.818 872.182 -123.471L872.653 -123.598L873.124 -123.725C818.811 -256.418 836.233 -406.404 912.031 -458.674L911.65 -459.328ZM872.653 -123.598L872.182 -123.471C899.483 -56.7708 939.668 -6.98292 982.586 19.5453C1025.5 46.0735 1071.1 49.3041 1109.19 23.0278L1108.81 22.374L1108.43 21.7203C1070.55 47.8469 1025.29 44.6014 982.731 18.2979C940.176 -8.00562 900.27 -57.4052 873.124 -123.725L872.653 -123.598ZM1108.81 22.374L1109.19 23.0278C1185.37 -29.5008 1202.86 -180.136 1148.28 -313.483L1147.81 -313.356L1147.34 -313.229C1201.65 -180.536 1184.23 -30.5505 1108.43 21.7202L1108.81 22.374ZM1147.81 -313.356L1148.28 -313.483C1148.27 -313.51 1148.26 -313.532 1148.26 -313.545C1148.25 -313.55 1148.25 -313.557 1148.25 -313.559C1148.25 -313.562 1148.25 -313.561 1148.25 -313.56C1148.25 -313.556 1148.27 -313.507 1148.29 -313.44L1147.78 -313.443L1147.26 -313.446C1147.29 -313.35 1147.32 -313.274 1147.33 -313.241C1147.34 -313.233 1147.34 -313.226 1147.34 -313.221C1147.34 -313.216 1147.35 -313.215 1147.35 -313.214C1147.35 -313.212 1147.34 -313.218 1147.34 -313.229L1147.81 -313.356ZM1147.78 -313.443L1148.32 -313.105L1148.32 -313.12L1147.78 -313.458L1147.23 -313.796L1147.23 -313.78L1147.78 -313.443ZM1147.78 -313.458L1148.25 -313.585C1148.18 -313.743 1148.12 -313.896 1148.06 -314.038C1147.99 -314.184 1147.94 -314.318 1147.88 -314.453L1147.41 -314.326L1146.94 -314.199C1147 -314.041 1147.07 -313.888 1147.13 -313.745C1147.19 -313.6 1147.25 -313.466 1147.31 -313.331L1147.78 -313.458ZM1147.41 -314.326L1146.94 -314.199C1146.95 -314.168 1146.96 -314.136 1146.98 -314.092C1147 -314.051 1147.02 -313.997 1147.04 -313.941L1147.51 -314.069L1147.98 -314.196C1147.97 -314.226 1147.96 -314.258 1147.94 -314.302C1147.92 -314.343 1147.9 -314.397 1147.88 -314.453L1147.41 -314.326ZM1147.51 -314.069L1147.99 -314.181L1147.89 -314.439L1147.41 -314.326L1146.93 -314.213L1147.03 -313.956L1147.51 -314.069ZM1147.41 -314.326L1147.03 -314.98L1147.02 -314.975L1147.4 -314.322L1147.78 -313.668L1147.79 -313.672L1147.41 -314.326Z" fill="#1F66D8"/>
<path d="M1147.63 -283.447L1147.16 -283.322L1147.3 -282.986L1147.56 -282.823L1147.63 -283.447ZM903.557 -433.882L903.937 -433.229L903.938 -433.229L903.557 -433.882ZM903.304 -433.722L903.685 -433.068L903.304 -433.722ZM862.889 -85.7814L862.417 -85.6543L862.417 -85.6541L862.889 -85.7814ZM1148.05 -282.441L1148.53 -282.568L1148.53 -282.568L1148.05 -282.441ZM1148.02 -282.528L1147.47 -282.865L1147.45 -282.709L1147.5 -282.531L1148.02 -282.528ZM1148.02 -282.543L1148.57 -282.205L1148.59 -282.425L1148.49 -282.67L1148.02 -282.543ZM1147.64 -283.443L1148.11 -283.571L1147.97 -283.905L1147.71 -284.067L1147.64 -283.443ZM1147.75 -283.175L1147.27 -283.048L1148.22 -283.288L1147.75 -283.175ZM1147.63 -283.447L1148.11 -283.571C1092.28 -420.865 1110.61 -575.812 1188.99 -629.863L1188.61 -630.516L1188.22 -631.17C1109.47 -576.862 1091.07 -421.269 1147.16 -283.322L1147.63 -283.447ZM1188.61 -630.516L1188.99 -629.863C1267.92 -684.295 1286.05 -840.396 1229.49 -978.577L1229.02 -978.449L1228.55 -978.322C1284.84 -840.796 1266.78 -685.345 1188.22 -631.17L1188.61 -630.516ZM1229.02 -978.449L1229.49 -978.577C1201.2 -1047.69 1159.56 -1099.28 1115.09 -1126.77C1070.61 -1154.26 1023.37 -1157.61 983.889 -1130.38L984.27 -1129.73L984.65 -1129.08C1023.91 -1156.15 1070.83 -1152.79 1114.94 -1125.53C1159.05 -1098.26 1200.41 -1047.06 1228.55 -978.322L1229.02 -978.449ZM984.27 -1129.73L983.889 -1130.38C904.957 -1075.95 886.825 -919.851 943.384 -781.67L943.855 -781.798L944.326 -781.925C888.035 -919.451 906.092 -1074.9 984.65 -1129.08L984.27 -1129.73ZM943.855 -781.798L943.384 -781.67C999.653 -644.198 981.661 -488.764 903.176 -434.536L903.557 -433.882L903.938 -433.229C982.796 -487.715 1000.86 -643.799 944.326 -781.925L943.855 -781.798ZM903.557 -433.882L903.176 -434.536C903.145 -434.514 903.111 -434.494 903.067 -434.467C903.026 -434.442 902.976 -434.412 902.924 -434.376L903.304 -433.722L903.685 -433.068C903.72 -433.092 903.755 -433.114 903.798 -433.14C903.839 -433.165 903.888 -433.195 903.937 -433.229L903.557 -433.882ZM903.304 -433.722L902.924 -434.376C823.991 -379.943 805.859 -223.843 862.417 -85.6543L862.889 -85.7814L863.36 -85.9088C807.069 -223.443 825.126 -378.894 903.685 -433.068L903.304 -433.722ZM862.889 -85.7814L862.417 -85.6541C890.708 -16.5375 932.348 35.0529 976.821 62.5418C1021.29 90.0307 1068.54 93.3803 1108.02 66.1537L1107.64 65.4999L1107.26 64.8461C1067.99 91.9231 1021.08 88.5587 976.966 61.2945C932.857 34.0303 891.495 -17.1718 863.36 -85.9088L862.889 -85.7814ZM1107.64 65.4999L1108.02 66.1537C1186.95 11.7211 1205.08 -144.38 1148.53 -282.568L1148.05 -282.441L1147.58 -282.313C1203.87 -144.78 1185.82 10.6715 1107.26 64.8461L1107.64 65.4999ZM1148.05 -282.441L1148.53 -282.568C1148.51 -282.595 1148.5 -282.616 1148.5 -282.629C1148.5 -282.635 1148.49 -282.642 1148.49 -282.643C1148.49 -282.646 1148.49 -282.646 1148.49 -282.645C1148.49 -282.64 1148.52 -282.591 1148.53 -282.524L1148.02 -282.528L1147.5 -282.531C1147.53 -282.434 1147.56 -282.358 1147.58 -282.326C1147.58 -282.318 1147.58 -282.31 1147.59 -282.306C1147.59 -282.301 1147.59 -282.3 1147.59 -282.298C1147.59 -282.297 1147.59 -282.303 1147.58 -282.313L1148.05 -282.441ZM1148.02 -282.528L1148.56 -282.19L1148.57 -282.205L1148.02 -282.543L1147.47 -282.88L1147.47 -282.865L1148.02 -282.528ZM1148.02 -282.543L1148.49 -282.67C1148.43 -282.833 1148.36 -282.991 1148.29 -283.139C1148.23 -283.289 1148.17 -283.429 1148.11 -283.571L1147.64 -283.443L1147.17 -283.316C1147.24 -283.153 1147.3 -282.995 1147.37 -282.847C1147.43 -282.697 1147.49 -282.557 1147.55 -282.415L1148.02 -282.543ZM1147.64 -283.443L1147.17 -283.316C1147.18 -283.285 1147.2 -283.25 1147.21 -283.202C1147.23 -283.159 1147.25 -283.103 1147.27 -283.048L1147.75 -283.175L1148.22 -283.302C1148.2 -283.334 1148.19 -283.369 1148.17 -283.416C1148.16 -283.459 1148.13 -283.515 1148.11 -283.571L1147.64 -283.443ZM1147.75 -283.175L1148.22 -283.288L1148.12 -283.557L1147.64 -283.443L1147.16 -283.33L1147.27 -283.061L1147.75 -283.175ZM1147.64 -283.443L1147.71 -284.067L1147.71 -284.07L1147.63 -283.447L1147.56 -282.823L1147.57 -282.82L1147.64 -283.443Z" fill="#1F66D8"/>
<path d="M1232.32 -971.415L1231.85 -971.287L1231.85 -971.287L1232.32 -971.415ZM978.342 -1128.4L978.723 -1127.75L978.723 -1127.75L978.342 -1128.4ZM936.404 -767.348L936.875 -767.476L936.875 -767.476L936.404 -767.348ZM894.588 -406.318L894.969 -405.664L894.969 -405.665L894.588 -406.318ZM894.329 -406.154L894.71 -405.5L894.329 -406.154ZM1148.31 -249.168L1148.78 -249.296L1148.31 -249.168ZM1148.27 -249.258L1147.72 -249.596L1147.69 -249.377L1147.8 -249.131L1148.27 -249.258ZM1148.27 -249.274L1148.81 -248.936L1148.84 -249.155L1148.74 -249.401L1148.27 -249.274ZM1147.98 -249.931L1147.53 -249.763L1148.46 -250.045L1147.98 -249.931ZM1147.87 -250.21L1148.34 -250.335C1090.41 -392.818 1109.42 -553.617 1190.76 -609.709L1190.38 -610.363L1190 -611.017C1108.29 -554.668 1089.2 -393.222 1147.4 -250.085L1147.87 -250.21ZM1190.38 -610.363L1190.76 -609.709C1272.67 -666.191 1291.48 -828.166 1232.79 -971.542L1232.32 -971.415L1231.85 -971.287C1290.27 -828.566 1271.53 -667.241 1190 -611.017L1190.38 -610.363ZM1232.32 -971.415L1232.79 -971.542C1203.44 -1043.26 1160.23 -1096.79 1114.09 -1125.31C1067.95 -1153.83 1018.93 -1157.31 977.962 -1129.05L978.342 -1128.4L978.723 -1127.75C1019.47 -1155.85 1068.16 -1152.36 1113.94 -1124.06C1159.72 -1095.77 1202.65 -1042.63 1231.85 -971.287L1232.32 -971.415ZM978.342 -1128.4L977.962 -1129.05C896.057 -1072.57 877.243 -910.597 935.933 -767.221L936.404 -767.348L936.875 -767.476C878.454 -910.197 897.192 -1071.52 978.723 -1127.75L978.342 -1128.4ZM936.404 -767.348L935.933 -767.221C994.332 -624.546 975.653 -463.248 894.207 -406.972L894.588 -406.318L894.969 -405.665C976.788 -462.199 995.542 -624.147 936.875 -767.476L936.404 -767.348ZM894.588 -406.318L894.208 -406.972C894.173 -406.948 894.137 -406.926 894.093 -406.899C894.051 -406.874 894.001 -406.843 893.949 -406.807L894.329 -406.154L894.71 -405.5C894.745 -405.524 894.78 -405.546 894.824 -405.573C894.866 -405.598 894.917 -405.629 894.969 -405.664L894.588 -406.318ZM894.329 -406.154L893.949 -406.807C812.044 -350.325 793.23 -188.351 851.919 -44.967L852.39 -45.0944L852.861 -45.2217C794.44 -187.951 813.179 -349.276 894.71 -405.5L894.329 -406.154ZM852.39 -45.0944L851.919 -44.967C881.274 26.7508 924.478 80.2796 970.621 108.8C1016.76 137.321 1065.78 140.796 1106.75 112.545L1106.37 111.891L1105.99 111.237C1065.24 139.339 1016.54 135.849 970.766 107.553C924.987 79.2571 882.061 26.1166 852.861 -45.2217L852.39 -45.0944ZM1106.37 111.891L1106.75 112.545C1188.65 56.0628 1207.47 -105.912 1148.78 -249.296L1148.31 -249.168L1147.84 -249.041C1206.26 -106.312 1187.52 55.0132 1105.99 111.237L1106.37 111.891ZM1148.31 -249.168L1148.78 -249.296C1148.76 -249.348 1148.74 -249.392 1148.73 -249.403C1148.72 -249.421 1148.73 -249.406 1148.74 -249.386L1148.27 -249.258L1147.8 -249.131C1147.82 -249.079 1147.84 -249.035 1147.84 -249.023C1147.85 -249.006 1147.84 -249.021 1147.84 -249.041L1148.31 -249.168ZM1148.27 -249.258L1148.81 -248.921L1148.81 -248.936L1148.27 -249.274L1147.72 -249.611L1147.72 -249.596L1148.27 -249.258ZM1148.27 -249.274L1148.74 -249.401C1148.61 -249.714 1148.45 -250.072 1148.34 -250.349L1147.87 -250.21L1147.4 -250.071C1147.55 -249.711 1147.67 -249.463 1147.8 -249.146L1148.27 -249.274ZM1147.87 -250.21L1147.42 -250.042C1147.41 -250.044 1147.42 -250.038 1147.44 -249.983C1147.45 -249.943 1147.48 -249.855 1147.53 -249.763L1147.98 -249.931L1148.43 -250.098C1148.43 -250.097 1148.43 -250.103 1148.41 -250.158C1148.4 -250.198 1148.36 -250.286 1148.32 -250.378L1147.87 -250.21ZM1147.98 -249.931L1148.46 -250.045L1148.35 -250.324L1147.87 -250.21L1147.39 -250.096L1147.5 -249.817L1147.98 -249.931Z" fill="#1F66D8"/>
<path d="M884.918 -376.641L885.298 -375.988L885.298 -375.988L884.918 -376.641ZM884.646 -376.468L885.027 -375.814L885.034 -375.819L885.04 -375.824L884.646 -376.468ZM1148.59 -213.325L1149.06 -213.452L1148.59 -213.325ZM1148.55 -213.422L1148 -213.76L1147.98 -213.541L1148.08 -213.295L1148.55 -213.422ZM1148.55 -213.438L1149.1 -213.1L1149.12 -213.319L1149.02 -213.565L1148.55 -213.438ZM1148.25 -214.117L1147.78 -213.989L1148.73 -214.231L1148.25 -214.117ZM1148.14 -214.407L1148.61 -214.531C1088.4 -362.616 1108.16 -529.738 1192.7 -588.037L1192.32 -588.691L1191.94 -589.345C1107.03 -530.788 1087.19 -363.02 1147.66 -214.282L1148.14 -214.407ZM1192.32 -588.691L1192.7 -588.037C1277.81 -646.727 1297.36 -815.046 1236.37 -964.034L1235.9 -963.906L1235.43 -963.779C1296.15 -815.446 1276.67 -647.777 1191.94 -589.345L1192.32 -588.691ZM1235.9 -963.906L1236.37 -964.034C1205.87 -1038.55 1160.98 -1094.17 1113.03 -1123.81C1065.09 -1153.45 1014.15 -1157.06 971.582 -1127.7L971.962 -1127.05L972.343 -1126.4C1014.69 -1155.6 1065.3 -1151.97 1112.89 -1122.56C1160.47 -1093.15 1205.09 -1037.92 1235.43 -963.779L1235.9 -963.906ZM971.962 -1127.05L971.582 -1127.7C886.476 -1069.01 866.925 -900.695 927.907 -751.707L928.379 -751.835L928.85 -751.962C868.135 -900.295 887.611 -1067.96 972.343 -1126.4L971.962 -1127.05ZM928.379 -751.835L927.907 -751.707C988.6 -603.428 969.191 -435.791 884.537 -377.295L884.918 -376.641L885.298 -375.988C970.326 -434.742 989.811 -603.029 928.85 -751.962L928.379 -751.835ZM884.918 -376.641L884.537 -377.295C884.505 -377.273 884.471 -377.253 884.419 -377.223C884.372 -377.195 884.312 -377.158 884.253 -377.112L884.646 -376.468L885.04 -375.824C885.068 -375.846 885.1 -375.866 885.145 -375.893C885.186 -375.917 885.244 -375.95 885.298 -375.988L884.918 -376.641ZM884.646 -376.468L884.266 -377.122C799.16 -318.432 779.609 -150.114 840.592 -1.12587L841.063 -1.25319L841.534 -1.38039C780.819 -149.714 800.295 -317.383 885.027 -375.814L884.646 -376.468ZM841.063 -1.25319L840.592 -1.12587C871.094 73.3944 915.989 129.015 963.935 158.65C1011.88 188.286 1062.82 191.899 1105.38 162.544L1105 161.89L1104.62 161.237C1062.27 190.442 1011.66 186.814 964.08 157.403C916.497 127.992 871.881 72.76 841.534 -1.38039L841.063 -1.25319ZM1105 161.89L1105.38 162.544C1190.49 103.855 1210.04 -64.464 1149.06 -213.452L1148.59 -213.325L1148.12 -213.197C1208.83 -64.864 1189.36 102.805 1104.62 161.237L1105 161.89ZM1148.59 -213.325L1149.06 -213.452C1149.05 -213.47 1149.06 -213.446 1149.05 -213.464C1149.05 -213.466 1149.05 -213.465 1149.05 -213.467C1149.05 -213.47 1149.05 -213.468 1149.05 -213.47C1149.05 -213.473 1149.05 -213.474 1149.05 -213.476C1149.03 -213.516 1149.06 -213.449 1149.04 -213.489C1149.04 -213.492 1149.04 -213.498 1149.04 -213.501C1149.03 -213.513 1149.04 -213.5 1149.03 -213.513C1149.03 -213.516 1149.03 -213.517 1149.03 -213.519C1149.03 -213.52 1149.03 -213.52 1149.03 -213.521C1149.03 -213.521 1149.03 -213.521 1149.03 -213.521C1149.03 -213.521 1149.03 -213.521 1149.03 -213.521C1149.03 -213.521 1149.03 -213.521 1149.03 -213.521C1149.03 -213.521 1149.03 -213.521 1149.03 -213.521C1149.03 -213.522 1149.03 -213.522 1149.03 -213.522C1149.03 -213.529 1149.03 -213.518 1149.03 -213.525C1149.03 -213.529 1149.03 -213.528 1149.03 -213.531C1149.02 -213.545 1149.03 -213.523 1149.02 -213.537C1149.02 -213.55 1149.02 -213.537 1149.02 -213.55L1148.55 -213.422L1148.08 -213.295C1148.08 -213.277 1148.07 -213.301 1148.08 -213.283C1148.08 -213.281 1148.08 -213.282 1148.08 -213.28C1148.08 -213.277 1148.08 -213.279 1148.08 -213.277C1148.09 -213.274 1148.09 -213.273 1148.09 -213.271C1148.1 -213.231 1148.08 -213.298 1148.09 -213.258C1148.09 -213.255 1148.1 -213.249 1148.1 -213.246C1148.1 -213.234 1148.1 -213.247 1148.1 -213.234C1148.1 -213.231 1148.1 -213.23 1148.1 -213.228C1148.1 -213.227 1148.1 -213.228 1148.1 -213.226C1148.1 -213.226 1148.1 -213.226 1148.1 -213.226C1148.1 -213.226 1148.1 -213.226 1148.1 -213.226C1148.1 -213.226 1148.1 -213.226 1148.1 -213.226C1148.1 -213.226 1148.1 -213.226 1148.1 -213.226C1148.1 -213.225 1148.1 -213.225 1148.11 -213.225C1148.11 -213.218 1148.1 -213.229 1148.11 -213.222C1148.11 -213.218 1148.11 -213.219 1148.11 -213.216C1148.11 -213.202 1148.11 -213.224 1148.11 -213.21C1148.12 -213.197 1148.11 -213.21 1148.12 -213.197L1148.59 -213.325ZM1148.55 -213.422L1149.09 -213.085L1149.1 -213.1L1148.55 -213.438L1148 -213.775L1148 -213.76L1148.55 -213.422ZM1148.55 -213.438L1149.02 -213.565C1148.95 -213.741 1148.87 -213.913 1148.8 -214.072C1148.73 -214.235 1148.67 -214.384 1148.61 -214.534L1148.14 -214.407L1147.67 -214.279C1147.74 -214.103 1147.81 -213.931 1147.88 -213.772C1147.95 -213.609 1148.02 -213.46 1148.08 -213.31L1148.55 -213.438ZM1148.14 -214.407L1147.67 -214.279C1147.68 -214.242 1147.7 -214.203 1147.72 -214.154C1147.73 -214.107 1147.76 -214.049 1147.78 -213.989L1148.25 -214.117L1148.72 -214.244C1148.71 -214.281 1148.69 -214.32 1148.67 -214.369C1148.66 -214.416 1148.63 -214.474 1148.61 -214.534L1148.14 -214.407ZM1148.25 -214.117L1148.73 -214.231L1148.61 -214.521L1148.14 -214.407L1147.66 -214.292L1147.78 -214.002L1148.25 -214.117Z" fill="#1F66D8"/>
<path d="M1148.42 -175.671L1148.35 -175.047L1149.49 -174.346L1148.9 -175.796L1148.42 -175.671ZM1194.41 -565.23L1194.03 -565.884L1194.41 -565.23ZM874.457 -344.525L874.838 -343.871L874.838 -343.871L874.457 -344.525ZM874.174 -344.351L873.794 -345.005L874.174 -344.351ZM1103.53 215.991L1103.91 216.645L1103.91 216.645L1103.53 215.991ZM1148.89 -174.546L1148.42 -174.418L1148.89 -174.546ZM1148.85 -174.647L1148.3 -174.984L1148.27 -174.713L1148.42 -174.421L1148.85 -174.647ZM1148.85 -174.662L1149.4 -174.324L1149.42 -174.538L1149.33 -174.778L1148.85 -174.662ZM1148.42 -175.674L1148.49 -176.298L1147.38 -176.986L1147.94 -175.559L1148.42 -175.674ZM1148.54 -175.373L1148.07 -175.246L1149.01 -175.488L1148.54 -175.373ZM1148.42 -175.671L1148.9 -175.796C1086.22 -329.939 1106.8 -503.894 1194.79 -564.576L1194.41 -565.23L1194.03 -565.884C1105.66 -504.944 1085.01 -330.343 1147.95 -175.546L1148.42 -175.671ZM1194.41 -565.23L1194.79 -564.576C1283.37 -625.658 1303.71 -800.835 1240.25 -955.894L1239.77 -955.767L1239.3 -955.639C1302.5 -801.235 1282.23 -626.707 1194.03 -565.884L1194.41 -565.23ZM1239.77 -955.767L1240.25 -955.894C1208.5 -1033.45 1161.78 -1091.33 1111.88 -1122.17C1061.99 -1153.02 1008.98 -1156.78 964.675 -1126.23L965.055 -1125.57L965.436 -1124.92C1009.52 -1155.32 1062.2 -1151.54 1111.74 -1120.93C1161.27 -1090.31 1207.71 -1032.82 1239.3 -955.639L1239.77 -955.767ZM965.055 -1125.57L964.675 -1126.23C876.1 -1065.14 855.753 -889.968 919.221 -734.908L919.692 -735.036L920.163 -735.163C856.963 -889.568 877.235 -1064.09 965.436 -1124.92L965.055 -1125.57ZM919.692 -735.036L919.221 -734.908C982.399 -580.558 962.192 -406.062 874.076 -345.179L874.457 -344.525L874.838 -343.871C963.328 -405.013 983.609 -580.158 920.163 -735.163L919.692 -735.036ZM874.457 -344.525L874.077 -345.179C874.042 -345.155 874.005 -345.133 873.956 -345.105C873.91 -345.078 873.852 -345.045 873.794 -345.005L874.174 -344.351L874.555 -343.697C874.59 -343.721 874.627 -343.743 874.676 -343.771C874.722 -343.798 874.78 -343.831 874.838 -343.871L874.457 -344.525ZM874.174 -344.351L873.794 -345.005C785.22 -283.923 764.872 -108.747 828.34 46.3129L828.811 46.1856L829.283 46.0584C766.082 -108.346 786.355 -282.874 874.555 -343.697L874.174 -344.351ZM828.811 46.1856L828.34 46.3129C860.085 123.869 906.806 181.752 956.701 212.592C1006.6 243.433 1059.61 247.194 1103.91 216.645L1103.53 215.991L1103.15 215.337C1059.06 245.737 1006.38 241.961 956.846 211.345C907.314 180.729 860.872 123.235 829.283 46.0584L828.811 46.1856ZM1103.53 215.991L1103.91 216.645C1192.48 155.563 1212.83 -19.6133 1149.36 -174.673L1148.89 -174.546L1148.42 -174.418C1211.62 -20.0134 1191.35 154.514 1103.15 215.337L1103.53 215.991ZM1148.89 -174.546L1149.36 -174.673C1149.35 -174.703 1149.32 -174.782 1149.27 -174.872L1148.85 -174.647L1148.42 -174.421C1148.42 -174.431 1148.41 -174.439 1148.41 -174.44C1148.41 -174.44 1148.41 -174.439 1148.42 -174.435C1148.42 -174.431 1148.42 -174.427 1148.42 -174.418L1148.89 -174.546ZM1148.85 -174.647L1149.39 -174.309L1149.4 -174.324L1148.85 -174.662L1148.3 -174.999L1148.3 -174.984L1148.85 -174.647ZM1148.85 -174.662L1149.33 -174.778C1149.25 -174.97 1149.17 -175.152 1149.1 -175.319C1149.02 -175.49 1148.96 -175.643 1148.89 -175.801L1148.42 -175.674L1147.95 -175.547C1148.03 -175.358 1148.11 -175.177 1148.18 -175.015C1148.25 -174.848 1148.31 -174.698 1148.37 -174.545L1148.85 -174.662ZM1148.42 -175.674L1147.95 -175.547C1147.96 -175.509 1147.98 -175.467 1148 -175.415C1148.02 -175.366 1148.04 -175.306 1148.07 -175.246L1148.54 -175.373L1149.01 -175.501C1148.99 -175.539 1148.98 -175.58 1148.96 -175.633C1148.94 -175.682 1148.92 -175.742 1148.89 -175.801L1148.42 -175.674ZM1148.54 -175.373L1149.01 -175.488L1148.9 -175.789L1148.42 -175.674L1147.94 -175.559L1148.06 -175.258L1148.54 -175.373ZM1148.42 -175.674L1148.35 -175.051L1148.35 -175.047L1148.42 -175.671L1148.5 -176.294L1148.49 -176.298L1148.42 -175.674Z" fill="#1F66D8"/>
<path d="M1148.74 -133.646L1148.67 -133.022L1149.8 -132.321L1149.21 -133.77L1148.74 -133.646ZM1196.69 -539.786L1197.07 -539.132L1197.07 -539.132L1196.69 -539.786ZM1243.98 -946.939L1244.45 -947.066L1243.98 -946.939ZM957.567 -1123.97L957.947 -1123.32L957.567 -1123.97ZM910.273 -716.82L910.745 -716.947L910.273 -716.82ZM863.114 -309.69L863.495 -309.036L863.495 -309.036L863.114 -309.69ZM862.819 -309.507L862.451 -310.169L862.445 -310.165L862.438 -310.161L862.819 -309.507ZM815.525 97.6531L815.996 97.5258L815.525 97.6531ZM1101.93 274.683L1102.31 275.337V275.337L1101.93 274.683ZM1149.23 -132.477L1149.7 -132.604V-132.604L1149.23 -132.477ZM1149.18 -132.578L1148.63 -132.916L1148.61 -132.696L1148.71 -132.451L1149.18 -132.578ZM1149.18 -132.593L1149.73 -132.256L1149.75 -132.47L1149.66 -132.71L1149.18 -132.593ZM1148.73 -133.649L1148.81 -134.273L1147.69 -134.962L1148.26 -133.534L1148.73 -133.649ZM1148.86 -133.337L1148.4 -133.174L1149.33 -133.453L1148.86 -133.337ZM1148.74 -133.646L1149.21 -133.77C1083.86 -294.493 1105.31 -475.864 1197.07 -539.132L1196.69 -539.786L1196.31 -540.44C1104.18 -476.915 1082.65 -294.898 1148.27 -133.521L1148.74 -133.646ZM1196.69 -539.786L1197.07 -539.132C1289.4 -602.807 1310.61 -785.425 1244.45 -947.066L1243.98 -946.939L1243.51 -946.811C1309.4 -785.825 1288.27 -603.856 1196.31 -540.44L1196.69 -539.786ZM1243.98 -946.939L1244.45 -947.066C1211.36 -1027.92 1162.65 -1088.26 1110.64 -1120.41C1058.63 -1152.56 1003.37 -1156.48 957.186 -1124.63L957.567 -1123.97L957.947 -1123.32C1003.92 -1155.02 1058.85 -1151.08 1110.5 -1119.16C1162.14 -1087.24 1210.57 -1027.28 1243.51 -946.811L1243.98 -946.939ZM957.567 -1123.97L957.186 -1124.63C864.852 -1060.95 843.64 -878.334 909.802 -716.692L910.273 -716.82L910.745 -716.947C844.851 -877.934 865.987 -1059.9 957.947 -1123.32L957.567 -1123.97ZM910.273 -716.82L909.802 -716.692C975.674 -555.76 954.609 -373.82 862.733 -310.343L863.114 -309.69L863.495 -309.036C955.744 -372.771 976.884 -555.36 910.745 -716.947L910.273 -716.82ZM863.114 -309.69L862.734 -310.343C862.642 -310.28 862.569 -310.242 862.451 -310.169L862.819 -309.507L863.187 -308.845C863.266 -308.894 863.388 -308.962 863.495 -309.036L863.114 -309.69ZM862.819 -309.507L862.438 -310.161C770.098 -246.482 748.887 -63.8719 815.054 97.7804L815.525 97.6531L815.996 97.5258C750.098 -63.4718 771.233 -245.433 863.2 -308.853L862.819 -309.507ZM815.525 97.6531L815.054 97.7804C848.145 178.627 896.85 238.965 948.861 271.114C1000.87 303.263 1056.13 307.184 1102.31 275.337L1101.93 274.683L1101.55 274.029C1055.59 305.727 1000.65 301.791 949.006 269.867C897.358 237.943 848.932 177.993 815.996 97.5258L815.525 97.6531ZM1101.93 274.683L1102.31 275.337C1194.65 211.655 1215.86 29.0447 1149.7 -132.604L1149.23 -132.477L1148.75 -132.35C1214.65 28.6447 1193.51 210.606 1101.55 274.029L1101.93 274.683ZM1149.23 -132.477L1149.7 -132.604C1149.69 -132.631 1149.68 -132.653 1149.67 -132.67C1149.66 -132.685 1149.66 -132.7 1149.65 -132.708C1149.65 -132.712 1149.65 -132.715 1149.65 -132.717C1149.65 -132.718 1149.65 -132.719 1149.65 -132.72C1149.65 -132.72 1149.65 -132.72 1149.65 -132.72C1149.65 -132.721 1149.65 -132.721 1149.65 -132.721C1149.65 -132.721 1149.65 -132.721 1149.65 -132.72C1149.65 -132.72 1149.65 -132.72 1149.65 -132.72C1149.65 -132.719 1149.65 -132.718 1149.65 -132.717C1149.65 -132.715 1149.65 -132.711 1149.65 -132.705L1149.18 -132.578L1148.71 -132.451C1148.72 -132.424 1148.73 -132.402 1148.74 -132.385C1148.74 -132.37 1148.75 -132.355 1148.76 -132.347C1148.76 -132.343 1148.76 -132.34 1148.76 -132.338C1148.76 -132.336 1148.76 -132.336 1148.76 -132.335C1148.76 -132.335 1148.76 -132.335 1148.76 -132.334C1148.76 -132.334 1148.76 -132.334 1148.76 -132.334C1148.76 -132.334 1148.76 -132.334 1148.76 -132.335C1148.76 -132.335 1148.76 -132.335 1148.76 -132.335C1148.76 -132.336 1148.76 -132.337 1148.76 -132.338C1148.76 -132.34 1148.76 -132.344 1148.75 -132.35L1149.23 -132.477ZM1149.18 -132.578L1149.73 -132.24L1149.73 -132.256L1149.18 -132.593L1148.64 -132.931L1148.63 -132.916L1149.18 -132.578ZM1149.18 -132.593L1149.66 -132.71C1149.58 -132.907 1149.5 -133.096 1149.42 -133.271C1149.34 -133.45 1149.27 -133.612 1149.21 -133.776L1148.73 -133.649L1148.26 -133.522C1148.34 -133.328 1148.43 -133.139 1148.5 -132.969C1148.58 -132.794 1148.64 -132.635 1148.71 -132.476L1149.18 -132.593ZM1148.73 -133.649L1148.26 -133.522C1148.28 -133.485 1148.29 -133.453 1148.31 -133.39C1148.33 -133.335 1148.36 -133.258 1148.4 -133.174L1148.86 -133.337L1149.31 -133.501C1149.31 -133.518 1149.3 -133.542 1149.28 -133.59C1149.26 -133.631 1149.24 -133.704 1149.21 -133.776L1148.73 -133.649ZM1148.86 -133.337L1149.33 -133.453L1149.21 -133.764L1148.73 -133.649L1148.26 -133.534L1148.38 -133.222L1148.86 -133.337ZM1148.73 -133.649L1148.66 -133.025L1148.67 -133.022L1148.74 -133.646L1148.81 -134.269L1148.81 -134.273L1148.73 -133.649Z" fill="#1F66D8"/>
<path d="M1149.1 -87.93L1148.63 -87.8052L1148.98 -86.9381L1149.48 -87.2745L1149.1 -87.93ZM1199.19 -512.158L1199.57 -511.505L1199.57 -511.505L1199.19 -512.158ZM900.02 -697.075L900.491 -697.202L900.02 -697.075ZM850.76 -271.811L851.14 -271.157L851.14 -271.158L850.76 -271.811ZM850.452 -271.62L850.083 -272.282L850.077 -272.278L850.071 -272.274L850.452 -271.62ZM1149.62 -86.7036L1149.15 -86.5762L1149.62 -86.7036ZM1149.57 -86.8122L1149.03 -87.1499L1149.01 -86.9765L1149.07 -86.7796L1149.57 -86.8122ZM1149.58 -86.8348L1150.12 -86.4972L1150.15 -86.7167L1150.05 -86.9622L1149.58 -86.8348ZM1149.11 -87.9341L1149.58 -88.0615L1149.23 -88.9248L1148.73 -88.5896L1149.11 -87.9341ZM1149.24 -87.6041L1148.77 -87.4768L1149.72 -87.7088L1149.24 -87.6041ZM1149.1 -87.93L1149.58 -88.0547C1081.31 -255.944 1103.72 -445.413 1199.57 -511.505L1199.19 -512.158L1198.81 -512.812C1102.58 -446.463 1080.1 -256.348 1148.63 -87.8052L1149.1 -87.93ZM1199.19 -512.158L1199.57 -511.505C1296.01 -578.011 1318.16 -768.744 1249.06 -937.576L1248.59 -937.449L1248.11 -937.322C1316.95 -769.144 1294.87 -579.061 1198.81 -512.812L1199.19 -512.158ZM1248.59 -937.449L1249.06 -937.576C1214.49 -1022.02 1163.63 -1085.04 1109.31 -1118.61C1054.99 -1152.19 997.275 -1156.28 949.039 -1123.02L949.42 -1122.37L949.8 -1121.71C997.819 -1154.83 1055.2 -1150.72 1109.16 -1117.36C1163.12 -1084.01 1213.71 -1021.38 1248.11 -937.322L1248.59 -937.449ZM949.42 -1122.37L949.039 -1123.02C852.598 -1056.51 830.443 -865.779 899.548 -696.947L900.02 -697.075L900.491 -697.202C831.654 -865.379 853.733 -1055.46 949.8 -1121.71L949.42 -1122.37ZM900.02 -697.075L899.548 -696.947C968.359 -528.835 946.357 -338.777 850.379 -272.465L850.76 -271.811L851.14 -271.158C947.492 -337.728 969.569 -528.436 900.491 -697.202L900.02 -697.075ZM850.76 -271.811L850.379 -272.465C850.286 -272.401 850.206 -272.358 850.083 -272.282L850.452 -271.62L850.82 -270.958C850.907 -271.012 851.034 -271.084 851.14 -271.157L850.76 -271.811ZM850.452 -271.62L850.071 -272.274C753.63 -205.767 731.475 -15.034 800.581 153.798L801.052 153.671L801.523 153.543C732.686 -14.6339 754.765 -204.717 850.832 -270.966L850.452 -271.62ZM801.052 153.671L800.581 153.798C835.144 238.24 886.011 301.258 940.331 334.833C994.652 368.409 1052.36 372.504 1100.6 339.241L1100.22 338.587L1099.84 337.933C1051.82 371.047 994.433 366.937 940.476 333.586C886.52 300.235 835.931 237.606 801.523 153.543L801.052 153.671ZM1100.22 338.587L1100.6 339.241C1197.04 272.734 1219.19 82.001 1150.09 -86.8308L1149.62 -86.7036L1149.15 -86.5762C1217.98 81.6009 1195.9 271.684 1099.84 337.933L1100.22 338.587ZM1149.62 -86.7036L1150.09 -86.8308C1150.08 -86.8441 1150.08 -86.8558 1150.07 -86.8652C1150.07 -86.8745 1150.07 -86.8827 1150.06 -86.8886C1150.06 -86.8916 1150.06 -86.8945 1150.06 -86.8967C1150.06 -86.899 1150.06 -86.9007 1150.06 -86.9023C1150.06 -86.9056 1150.06 -86.9067 1150.06 -86.907C1150.06 -86.9077 1150.06 -86.9015 1150.06 -86.8914C1150.07 -86.8809 1150.07 -86.8649 1150.08 -86.8448L1149.57 -86.8122L1149.07 -86.7796C1149.09 -86.7007 1149.12 -86.6366 1149.13 -86.603C1149.14 -86.5887 1149.15 -86.57 1149.15 -86.5686C1149.15 -86.5622 1149.15 -86.5673 1149.15 -86.5762L1149.62 -86.7036ZM1149.57 -86.8122L1150.12 -86.4746L1150.12 -86.4972L1149.58 -86.8348L1149.03 -87.1725L1149.03 -87.1499L1149.57 -86.8122ZM1149.58 -86.8348L1150.05 -86.9622C1149.97 -87.1585 1149.88 -87.351 1149.81 -87.5319C1149.73 -87.716 1149.65 -87.8886 1149.58 -88.0615L1149.11 -87.9341L1148.64 -87.8069C1148.72 -87.6105 1148.8 -87.418 1148.88 -87.2371C1148.96 -87.053 1149.03 -86.8805 1149.11 -86.7076L1149.58 -86.8348ZM1149.11 -87.9341L1148.64 -87.8069C1148.65 -87.7722 1148.67 -87.7339 1148.69 -87.6756C1148.71 -87.6232 1148.74 -87.5508 1148.77 -87.4768L1149.24 -87.6041L1149.71 -87.7314C1149.69 -87.766 1149.68 -87.8044 1149.66 -87.8627C1149.64 -87.9151 1149.61 -87.9875 1149.58 -88.0615L1149.11 -87.9341ZM1149.24 -87.6041L1149.72 -87.7088L1149.59 -88.0389L1149.11 -87.9341L1148.63 -87.8294L1148.76 -87.4994L1149.24 -87.6041ZM1149.11 -87.9341L1148.73 -88.5896L1148.73 -88.5854L1149.1 -87.93L1149.48 -87.2745L1149.49 -87.2787L1149.11 -87.9341Z" fill="#1F66D8"/>
<path d="M1201.86 -481.791L1201.48 -482.445V-482.445L1201.86 -481.791ZM940.494 -1120.34L940.875 -1119.68L940.875 -1119.68L940.494 -1120.34ZM837.251 -230.278L837.632 -229.624L837.632 -229.624L837.251 -230.278ZM836.931 -230.078L836.551 -230.732L836.931 -230.078ZM1098.3 408.474L1098.68 409.128V409.128L1098.3 408.474ZM1149.99 -36.5742L1150.46 -36.7014L1150.46 -36.7015L1149.99 -36.5742ZM1149.94 -36.6861L1149.39 -37.0237L1149.36 -36.7528L1149.52 -36.4607L1149.94 -36.6861ZM1149.94 -36.7088L1150.49 -36.3712L1150.51 -36.5858L1150.42 -36.8265L1149.94 -36.7088ZM1149.59 -37.5106L1149.13 -37.3507L1150.07 -37.6271L1149.59 -37.5106ZM1149.45 -37.8548L1149.93 -37.9796C1078.49 -213.68 1101.93 -411.958 1202.24 -481.137L1201.86 -481.791L1201.48 -482.445C1100.8 -413.009 1077.28 -214.085 1148.98 -37.73L1149.45 -37.8548ZM1201.86 -481.791L1202.24 -481.137C1303.15 -550.725 1326.33 -750.307 1254.02 -926.959L1253.55 -926.832L1253.08 -926.705C1325.12 -750.707 1302.01 -551.774 1201.48 -482.445L1201.86 -481.791ZM1253.55 -926.832L1254.02 -926.959C1217.86 -1015.32 1164.64 -1081.25 1107.8 -1116.38C1050.97 -1151.51 990.583 -1155.8 940.114 -1120.99L940.494 -1120.34L940.875 -1119.68C991.127 -1154.34 1051.19 -1150.04 1107.66 -1115.14C1164.13 -1080.23 1217.07 -1014.68 1253.08 -926.705L1253.55 -926.832ZM940.494 -1120.34L940.114 -1120.99C839.205 -1051.4 816.022 -851.82 888.329 -675.168L888.8 -675.295L889.271 -675.422C817.233 -851.42 840.34 -1050.35 940.875 -1119.68L940.494 -1120.34ZM888.8 -675.295L888.329 -675.168C960.34 -499.235 937.316 -300.332 836.87 -230.931L837.251 -230.278L837.632 -229.624C938.451 -299.283 961.55 -498.836 889.271 -675.422L888.8 -675.295ZM837.251 -230.278L836.87 -230.932C836.828 -230.902 836.783 -230.876 836.728 -230.843C836.676 -230.812 836.613 -230.775 836.551 -230.732L836.931 -230.078L837.312 -229.424C837.354 -229.454 837.399 -229.48 837.454 -229.513C837.506 -229.544 837.569 -229.581 837.632 -229.624L837.251 -230.278ZM836.931 -230.078L836.551 -230.732C735.636 -161.14 712.454 38.4347 784.765 215.098L785.236 214.97L785.707 214.843C713.664 38.8347 736.771 -160.091 837.312 -229.424L836.931 -230.078ZM785.236 214.97L784.765 215.098C820.928 303.45 874.152 369.385 930.987 404.515C987.822 439.645 1048.21 443.932 1098.68 409.128L1098.3 408.474L1097.91 407.821C1047.66 442.475 987.604 438.173 931.132 403.267C874.661 368.362 821.716 302.816 785.707 214.843L785.236 214.97ZM1098.3 408.474L1098.68 409.128C1199.59 339.533 1222.77 139.958 1150.46 -36.7014L1149.99 -36.5742L1149.52 -36.4469C1221.56 139.558 1198.45 338.484 1097.91 407.821L1098.3 408.474ZM1149.99 -36.5742L1150.46 -36.7015C1150.45 -36.7376 1150.41 -36.8198 1150.37 -36.9115L1149.94 -36.6861L1149.52 -36.4607C1149.51 -36.4659 1149.51 -36.4706 1149.51 -36.4745C1149.51 -36.4783 1149.51 -36.4805 1149.51 -36.4803C1149.51 -36.4798 1149.51 -36.4775 1149.51 -36.4717C1149.51 -36.4655 1149.51 -36.4584 1149.52 -36.4469L1149.99 -36.5742ZM1149.94 -36.6861L1150.49 -36.3485L1150.49 -36.3712L1149.94 -36.7088L1149.4 -37.0465L1149.39 -37.0237L1149.94 -36.6861ZM1149.94 -36.7088L1150.42 -36.8265C1150.26 -37.2123 1150.05 -37.6746 1149.92 -37.9917L1149.45 -37.8548L1148.99 -37.7179C1149.18 -37.2681 1149.31 -36.9808 1149.47 -36.5911L1149.94 -36.7088ZM1149.45 -37.8548L1149 -37.6949C1149.01 -37.6765 1149.02 -37.6516 1149.04 -37.5875C1149.06 -37.5354 1149.09 -37.4442 1149.13 -37.3507L1149.59 -37.5106L1150.05 -37.6705C1150.04 -37.6888 1150.03 -37.7138 1150.01 -37.7779C1149.99 -37.8299 1149.95 -37.9212 1149.91 -38.0147L1149.45 -37.8548ZM1149.59 -37.5106L1150.07 -37.6271L1149.93 -37.9714L1149.45 -37.8548L1148.98 -37.7382L1149.12 -37.394L1149.59 -37.5106Z" fill="#1F66D8"/>
<path d="M1204.83 -448.545L1204.45 -449.199L1204.45 -449.199L1204.83 -448.545ZM930.707 -1118.25L931.087 -1117.6L931.087 -1117.6L930.707 -1118.25ZM822.43 -184.758L822.81 -184.104L822.81 -184.104L822.43 -184.758ZM822.091 -184.545L822.472 -183.892L822.091 -184.545ZM1096.21 485.161L1096.59 485.814V485.814L1096.21 485.161ZM1150.43 18.4016L1149.96 18.5288L1150.43 18.4016ZM1150.38 18.2821L1149.83 17.9444L1149.81 18.1178L1149.87 18.3147L1150.38 18.2821ZM1150.38 18.2593L1150.93 18.5969L1150.95 18.382L1150.86 18.141L1150.38 18.2593ZM1150.01 17.4108L1149.54 17.5381L1150.49 17.3041L1150.01 17.4108ZM1149.87 17.0482L1150.34 16.9233C1075.4 -167.371 1100 -375.34 1205.21 -447.892L1204.83 -448.545L1204.45 -449.199C1098.87 -376.391 1074.19 -167.775 1149.39 17.1729L1149.87 17.0482ZM1204.83 -448.545L1205.21 -447.892C1311.03 -520.864 1335.35 -730.167 1259.51 -915.432L1259.04 -915.305L1258.57 -915.177C1334.14 -730.567 1309.9 -521.914 1204.45 -449.199L1204.83 -448.545ZM1259.04 -915.305L1259.51 -915.432C1221.59 -1008.09 1165.77 -1077.23 1106.18 -1114.07C1046.58 -1150.91 983.255 -1155.41 930.326 -1118.91L930.707 -1118.25L931.087 -1117.6C983.799 -1153.95 1046.8 -1149.44 1106.03 -1112.83C1165.27 -1076.21 1220.8 -1007.46 1258.57 -915.177L1259.04 -915.305ZM930.707 -1118.25L930.326 -1118.91C824.498 -1045.93 800.187 -836.63 876.018 -651.365L876.49 -651.492L876.961 -651.62C801.397 -836.23 825.633 -1044.88 931.087 -1117.6L930.707 -1118.25ZM876.49 -651.492L876.018 -651.365C951.551 -466.83 927.398 -258.207 822.049 -185.412L822.43 -184.758L822.81 -184.104C928.533 -257.158 952.761 -466.431 876.961 -651.62L876.49 -651.492ZM822.43 -184.758L822.049 -185.412C822.003 -185.38 821.955 -185.351 821.897 -185.316C821.841 -185.283 821.776 -185.244 821.711 -185.199L822.091 -184.545L822.472 -183.892C822.518 -183.924 822.566 -183.952 822.624 -183.987C822.679 -184.02 822.745 -184.059 822.81 -184.104L822.43 -184.758ZM822.091 -184.545L821.711 -185.199C715.882 -112.219 691.571 97.0756 767.403 282.341L767.874 282.214L768.345 282.086C692.782 97.4757 717.017 -111.169 822.472 -183.892L822.091 -184.545ZM767.874 282.214L767.403 282.341C805.327 374.994 861.141 444.136 920.74 480.975C980.339 517.813 1043.66 522.311 1096.59 485.814L1096.21 485.161L1095.83 484.507C1043.12 520.854 980.121 516.341 920.885 479.727C861.649 443.113 806.114 374.36 768.345 282.086L767.874 282.214ZM1096.21 485.161L1096.59 485.814C1202.42 412.834 1226.73 203.539 1150.9 18.2742L1150.43 18.4016L1149.96 18.5288C1225.52 203.139 1201.28 411.785 1095.83 484.507L1096.21 485.161ZM1150.43 18.4016L1150.9 18.2742C1150.89 18.2496 1150.88 18.2285 1150.87 18.2146C1150.87 18.2081 1150.87 18.201 1150.87 18.1976C1150.86 18.1931 1150.86 18.191 1150.86 18.1896C1150.86 18.1869 1150.86 18.1925 1150.87 18.2022C1150.87 18.2126 1150.88 18.229 1150.88 18.2494L1150.38 18.2821L1149.87 18.3147C1149.9 18.3943 1149.93 18.4591 1149.94 18.4914C1149.95 18.503 1149.96 18.5257 1149.96 18.5257C1149.96 18.532 1149.96 18.5317 1149.96 18.5288L1150.43 18.4016ZM1150.38 18.2821L1150.93 18.6197L1150.93 18.5969L1150.38 18.2593L1149.84 17.9216L1149.83 17.9444L1150.38 18.2821ZM1150.38 18.2593L1150.86 18.141C1150.77 17.9171 1150.67 17.702 1150.59 17.5025C1150.5 17.2984 1150.42 17.1119 1150.34 16.9209L1149.87 17.0482L1149.39 17.1754C1149.49 17.3972 1149.58 17.6115 1149.67 17.8074C1149.75 18.0079 1149.83 18.192 1149.91 18.3775L1150.38 18.2593ZM1149.87 17.0482L1149.39 17.1754C1149.41 17.2172 1149.43 17.2624 1149.45 17.3259C1149.47 17.3841 1149.5 17.4604 1149.54 17.5381L1150.01 17.4108L1150.48 17.2834C1150.46 17.2417 1150.44 17.1965 1150.42 17.133C1150.4 17.0748 1150.37 16.9985 1150.34 16.9209L1149.87 17.0482ZM1150.01 17.4108L1150.49 17.3041L1150.35 16.9414L1149.87 17.0482L1149.39 17.1548L1149.53 17.5175L1150.01 17.4108Z" fill="#1F66D8"/>
<path d="M1150.32 77.5897L1150.86 77.9273L1150.89 77.7093L1150.79 77.465L1150.32 77.5897ZM862.917 -625.249L862.445 -625.122L862.917 -625.249ZM806.081 -134.575L806.462 -133.921L806.462 -133.921L806.081 -134.575ZM805.73 -134.346L806.11 -133.693L806.115 -133.696L806.12 -133.7L805.73 -134.346ZM1150.91 79.0116L1150.44 79.1389L1150.91 79.0116ZM1150.86 78.8889L1150.31 78.5513L1150.28 78.7707L1150.38 79.0162L1150.86 78.8889ZM1150.86 78.8661L1151.4 79.2037L1151.43 78.9886L1151.33 78.7475L1150.86 78.8661ZM1150.32 77.5973L1149.77 77.2597L1149.74 77.4742L1149.84 77.7146L1150.32 77.5973ZM1150.47 77.9742L1150.01 78.1313L1150.94 77.857L1150.47 77.9742ZM1150.32 77.5897L1150.79 77.465C1072.01 -116.299 1097.86 -334.955 1208.48 -411.238L1208.1 -411.891L1207.72 -412.545C1096.73 -336.006 1070.8 -116.703 1149.84 77.7146L1150.32 77.5897ZM1208.1 -411.891L1208.48 -411.238C1319.72 -487.953 1345.28 -707.975 1265.57 -902.722L1265.1 -902.595L1264.62 -902.467C1344.07 -708.375 1318.59 -489.003 1207.72 -412.545L1208.1 -411.891ZM1265.1 -902.595L1265.57 -902.722C1225.7 -1000.12 1167.03 -1072.8 1104.38 -1111.52C1041.73 -1150.25 975.172 -1154.97 919.534 -1116.61L919.915 -1115.95L920.295 -1115.3C975.716 -1153.52 1041.95 -1148.78 1104.24 -1110.28C1166.52 -1071.78 1224.91 -999.488 1264.62 -902.467L1265.1 -902.595ZM919.915 -1115.95L919.534 -1116.61C808.289 -1039.89 782.732 -819.869 862.445 -625.122L862.917 -625.249L863.388 -625.377C783.943 -819.469 809.424 -1038.84 920.295 -1115.3L919.915 -1115.95ZM862.917 -625.249L862.445 -625.122C941.859 -431.105 916.467 -211.767 805.701 -135.229L806.081 -134.575L806.462 -133.921C917.602 -210.718 943.069 -430.706 863.388 -625.377L862.917 -625.249ZM806.081 -134.575L805.701 -135.229C805.65 -135.194 805.599 -135.163 805.536 -135.124C805.477 -135.088 805.407 -135.044 805.339 -134.993L805.73 -134.346L806.12 -133.7C806.164 -133.733 806.212 -133.763 806.271 -133.799C806.326 -133.834 806.395 -133.875 806.462 -133.921L806.081 -134.575ZM805.73 -134.346L805.349 -135C694.104 -58.2848 668.547 161.737 748.26 356.484L748.731 356.357L749.203 356.23C669.758 162.137 695.239 -57.235 806.11 -133.693L805.73 -134.346ZM748.731 356.357L748.26 356.484C788.127 453.884 846.797 526.565 909.444 565.287C972.092 604.01 1038.65 608.737 1094.29 570.369L1093.91 569.715L1093.53 569.061C1038.11 607.28 971.873 602.538 909.589 564.04C847.306 525.542 788.914 453.25 749.203 356.23L748.731 356.357ZM1093.91 569.715L1094.29 570.369C1205.54 493.654 1231.09 273.632 1151.38 78.8844L1150.91 79.0116L1150.44 79.1389C1229.88 273.232 1204.4 492.604 1093.53 569.061L1093.91 569.715ZM1150.91 79.0116L1151.38 78.8844C1151.36 78.8362 1151.34 78.7946 1151.33 78.7772C1151.32 78.7549 1151.33 78.7569 1151.33 78.7616L1150.86 78.8889L1150.38 79.0162C1150.4 79.0643 1150.42 79.106 1150.43 79.1233C1150.44 79.1456 1150.44 79.1436 1150.44 79.1389L1150.91 79.0116ZM1150.86 78.8889L1151.4 79.2265L1151.4 79.2037L1150.86 78.8661L1150.31 78.5285L1150.31 78.5513L1150.86 78.8889ZM1150.86 78.8661L1151.33 78.7475C1151.17 78.3287 1150.93 77.8064 1150.78 77.4615L1150.32 77.5973L1149.85 77.7333C1150.06 78.2422 1150.21 78.5412 1150.38 78.9848L1150.86 78.8661ZM1150.32 77.5973L1149.86 77.7544C1149.87 77.7813 1149.88 77.8145 1149.91 77.8835C1149.93 77.9416 1149.96 78.0354 1150.01 78.1313L1150.47 77.9742L1150.92 77.8172C1150.91 77.7903 1150.9 77.757 1150.87 77.6881C1150.85 77.6301 1150.82 77.5361 1150.77 77.4402L1150.32 77.5973ZM1150.47 77.9742L1150.94 77.857L1150.79 77.48L1150.32 77.5973L1149.84 77.7146L1149.99 78.0915L1150.47 77.9742ZM1150.32 77.5973L1150.86 77.9349L1150.86 77.9273L1150.32 77.5897L1149.77 77.2521L1149.77 77.2597L1150.32 77.5973Z" fill="#1F66D8"/>
</g>
</g>
<defs>
<linearGradient id="paint0_linear_1772_347" x1="0" y1="36" x2="1080" y2="36" gradientUnits="userSpaceOnUse">
<stop stop-color="#0547C5"/>
<stop offset="1" stop-color="#081E3C"/>
</linearGradient>
<clipPath id="clip0_1772_347">
<rect width="1080" height="72" fill="white"/>
</clipPath>
</defs>
</svg>
